<?xml version="1.0" encoding="utf-8"?>
<svg version="1.1" viewBox="0 0 630 630" xmlns="http://www.w3.org/2000/svg">
  <g id="logo">
    <rect id="background" x="0" y="0" width="630" height="630" fill="#f7df1e"/>
    <path d="M 1895.986 1953.769 C 1934.896 1953.769 1961.566 1933.059 1961.566 1887.559 L 1961.566 1737.569 L 1917.636 1737.569 L 1917.636 1886.929 C 1917.636 1908.899 1908.536 1914.549 1894.096 1914.549 C 1879.036 1914.549 1872.766 1904.189 1865.856 1891.959 L 1830.086 1913.609 C 1840.436 1935.569 1860.836 1953.769 1895.986 1953.769 Z M 2047.603 1834.236 C 2047.603 1834.236 2047.859 1821.659 2047.859 1811.309 L 2047.859 1737.569 L 2003.929 1737.569 L 2003.929 1950.949 L 2047.859 1950.949 L 2047.859 1891.959 L 2068.569 1867.169 L 2125.369 1950.949 L 2178.399 1950.949 L 2098.069 1834.219 L 2169.619 1737.569 L 2119.719 1737.569 L 2063.239 1813.819 C 2056.649 1822.609 2047.603 1834.236 2047.603 1834.236 Z" transform="matrix(1.3481799364089966, 0, 0, 1.3458030223846436, -2355.8623046875, -2049.634033203125)" style="white-space: pre;"/>
  </g>
</svg>