<?xml version="1.0" standalone="no"?>
<!DOCTYPE svg PUBLIC "-//W3C//DTD SVG 20010904//EN"
 "http://www.w3.org/TR/2001/REC-SVG-20010904/DTD/svg10.dtd">
<svg version="1.0" xmlns="http://www.w3.org/2000/svg"
 width="700.000000pt" height="700.000000pt" viewBox="0 0 700.000000 700.000000"
 preserveAspectRatio="xMidYMid meet">
<metadata>
Created by potrace 1.11, written by Peter Selinger 2001-2013
</metadata>
<g transform="translate(0.000000,700.000000) scale(0.100000,-0.100000)"
fill="#000000" stroke="none">
<path d="M0 3500 l0 -3500 3500 0 3500 0 0 3500 0 3500 -3500 0 -3500 0 0
-3500z m3206 -917 c-2 -665 -6 -1224 -10 -1243 -21 -105 -51 -210 -78 -273
-84 -198 -241 -350 -439 -427 -152 -59 -236 -73 -424 -74 -257 -1 -359 18
-545 102 -164 74 -333 239 -435 425 l-36 66 23 15 c83 53 510 307 512 304 125
-209 184 -269 311 -317 55 -21 256 -13 271 10 3 5 13 9 22 9 21 0 81 53 111
96 22 34 51 131 56 193 2 20 3 550 4 1179 l1 1142 329 0 329 0 -2 -1207z
m1292 487 c-2 -396 -2 -720 -1 -720 1 0 42 53 92 118 50 64 95 122 100 128 5
7 34 45 63 85 29 41 55 76 59 79 3 3 25 32 49 65 43 59 97 132 426 575 88 118
189 254 224 303 l65 87 373 0 373 0 -33 -47 c-18 -27 -35 -50 -38 -53 -3 -3
-17 -21 -30 -40 -13 -19 -29 -40 -35 -46 -5 -6 -63 -83 -127 -170 -64 -88
-180 -244 -257 -349 -78 -104 -149 -201 -158 -214 -10 -13 -102 -136 -204
-274 l-186 -251 76 -111 c42 -61 123 -179 181 -263 158 -229 525 -761 615
-892 171 -248 225 -326 235 -340 5 -8 28 -41 50 -73 22 -32 40 -60 40 -63 0
-2 -178 -3 -396 -2 l-396 3 -92 135 c-50 74 -149 219 -219 323 -70 103 -184
271 -254 375 -70 103 -154 225 -186 272 -33 47 -67 97 -76 112 -9 16 -18 28
-21 27 -3 0 -74 -83 -157 -183 l-153 -184 0 -441 0 -441 -327 2 -328 3 -1
1593 -1 1592 329 0 329 0 -3 -720z"/>
</g>
</svg>
